<?xml version="1.0" encoding="UTF-8"?>
<svg id="Layer_1" data-name="Layer 1" xmlns="http://www.w3.org/2000/svg" viewBox="0 0 16 16">
  <defs>
    <style>
      .cls-1 {
        fill: none;
        stroke: #594e71;
        stroke-linecap: round;
        stroke-linejoin: round;
      }

      .cls-2 {
        fill: #f3f9f2;
      }

      .cls-3 {
        fill: #ebebef;
      }

      .cls-4 {
        fill: #6d707e;
      }
    </style>
  </defs>
  <path class="cls-3" d="M8,14H2.75c-.97,0-1.75-.84-1.75-1.87V3.87c0-1.03.78-1.87,1.75-1.87h3.29c.26,0,.51.1.7.28l1.76,1.72h4.5c1.1,0,2,.9,2,2v3l-.51-.31-.88-1.07-1.08-.12-.62.5-.28,1.25-.11,1.08"/>
  <path class="cls-4" d="M8.09,5h4.91c.55,0,1,.45,1,1v.22h1v-.22c0-1.1-.9-2-2-2h-4.5l-1.76-1.72c-.19-.18-.44-.28-.7-.28h-3.29c-.97,0-1.75.84-1.75,1.87v8.27c0,1.03.78,1.87,1.75,1.87h3.18v-1h-3.18c-.35,0-.75-.33-.75-.87V3.87c0-.54.4-.87.75-.87h3.29l2.06,2Z"/>
  <g>
    <rect class="cls-2" x="8.02" y="11" width="4" height="3"/>
    <path class="cls-1" d="M11.52,10v-1c0-.83.67-1.5,1.5-1.5h0c.83,0,1.5.67,1.5,1.5v1.5"/>
    <path class="cls-1" d="M7.52,14v-3c0-.28.22-.5.5-.5h4c.28,0,.5.22.5.5v3c0,.28-.22.5-.5.5h-4c-.28,0-.5-.22-.5-.5Z"/>
  </g>
</svg>