<?xml version="1.0" encoding="UTF-8"?>
<svg id="Layer_1" data-name="Layer 1" xmlns="http://www.w3.org/2000/svg" viewBox="0 0 16 16">
  <defs>
    <style>
      .cls-1 {
        fill: #ec8d22;
      }

      .cls-2 {
        fill: #6d707e;
        fill-rule: evenodd;
      }
    </style>
  </defs>
  <path class="cls-2" d="M4,8v-2h2c1.1,0,2-.9,2-2v-2h3c.55,0,1,.45,1,1v5h1V3c0-1.1-.9-2-2-2h-3.17c-.53,0-1.04.21-1.41.59l-2.83,2.83c-.38.38-.59.88-.59,1.41v2.17h1ZM7,2.41v1.59c0,.55-.45,1-1,1h-1.59l2.59-2.59Z"/>
  <rect class="cls-1" y="9.07" width="16" height="5.93" rx=".87" ry=".87"/>
  <g>
    <path d="M1.27,12.9c.09,0,.13.05.13.14v.53c0,.09-.04.14-.13.14h-.49c-.08,0-.13-.05-.13-.14v-.53c0-.09.05-.14.13-.14h.49Z"/>
    <path d="M1.68,11.46c0-.31.06-1.15,1.09-1.15.91,0,1.06.66,1.08,1.03,0,.08-.04.14-.11.16l-.49.12c-.09.02-.13-.02-.14-.12-.02-.23-.09-.36-.34-.36-.32,0-.34.22-.34.59v.68c0,.37.02.59.34.59s.34-.22.34-.46h-.25c-.08,0-.13-.05-.13-.14v-.38c0-.1.05-.14.13-.14h.87c.09,0,.13.05.13.14v.64c0,.31-.06,1.15-1.09,1.15s-1.09-.84-1.09-1.15v-1.19Z"/>
    <path d="M4.85,10.39c.08,0,.13.05.13.14v1.19c0,.09.05.14.13.14h.42c.09,0,.13-.05.13-.14v-1.19c0-.09.05-.14.13-.14h.48c.09,0,.13.05.13.14v3.04c0,.09-.04.14-.13.14h-.48c-.08,0-.13-.05-.13-.14v-.75c0-.09-.04-.14-.13-.14h-.42c-.08,0-.13.05-.13.14v.75c0,.09-.04.14-.13.14h-.49c-.08,0-.13-.05-.13-.14v-3.04c0-.09.04-.14.13-.14h.49Z"/>
    <path d="M7.53,11.35c0-.09-.04-.14-.13-.14h-.61c-.08,0-.13-.05-.13-.14v-.53c0-.09.05-.14.13-.14h2.22c.09,0,.13.05.13.14v.53c0,.09-.04.14-.13.14h-.61c-.08,0-.13.05-.13.14v2.22c0,.09-.04.14-.13.14h-.49c-.08,0-.13-.05-.13-.14v-2.22Z"/>
    <path d="M10.43,10.39c.08,0,.12.05.14.13l.31,1.38s.04.05.05,0l.31-1.38c.02-.08.06-.13.14-.13h.9c.09,0,.13.05.13.14v3.04c0,.09-.04.14-.13.14h-.49c-.08,0-.13-.05-.13-.14v-1.87s-.04-.04-.05,0l-.42,1.89c-.02.08-.06.12-.14.12h-.29c-.08,0-.13-.04-.14-.12l-.42-1.89s-.05-.03-.05,0v1.87c0,.09-.04.14-.13.14h-.49c-.09,0-.13-.05-.13-.14v-3.04c0-.09.04-.14.13-.14h.9Z"/>
    <path d="M13.44,10.39c.09,0,.13.05.13.14v2.22c0,.09.05.14.13.14h.97c.09,0,.13.05.13.14v.53c0,.09-.04.14-.13.14h-1.71c-.08,0-.13-.05-.13-.14v-3.04c0-.09.05-.14.13-.14h.49Z"/>
  </g>
</svg>