<?xml version="1.0" encoding="UTF-8"?>
<svg id="Layer_1" data-name="Layer 1" xmlns="http://www.w3.org/2000/svg" viewBox="0 0 16 16">
  <defs>
    <style>
      .cls-1 {
        fill: none;
        stroke: #efe6f2;
        stroke-linecap: round;
        stroke-linejoin: round;
      }
    </style>
  </defs>
  <path class="cls-1" d="M12.35,7.99c.15.12.26.26.31.43.05.17.03.31-.06.43l-.1.14c.51-.22,1.14-.29,1.89-.21.35.04.69.1,1.04.2l-3.48,4.93c-.19-.32-.36-.65-.49-.98-.3-.73-.42-1.39-.36-1.96l-.1.14c-.08.12-.21.18-.38.18s-.33-.06-.48-.18l-.47-.36-1.4,2.91H.54s0,0,0,0l5.83-5.46h2.18"/>
  <path class="cls-1" d="M5.87,7.13h-1.69l-.56-.43,2.78-3.94.55.43.5,1.7h.63c.17,0,.33.06.48.18l.64.49,2.15-2.02h1.79l-1.78,3.7"/>
</svg>
