<?xml version="1.0" encoding="UTF-8"?>
<svg id="Layer_1" data-name="Layer 1" xmlns="http://www.w3.org/2000/svg" viewBox="0 0 16 16">
  <defs>
    <style>
      .cls-1 {
        fill: #ec8d22;
      }

      .cls-2 {
        fill: #6d707e;
        fill-rule: evenodd;
      }
    </style>
  </defs>
  <g>
    <path class="cls-1" d="M4.48,13.72c.09.12.13.24.13.37s-.04.23-.13.32-.2.13-.33.13c-.09,0-.19-.02-.3-.07-.2-.14-.42-.31-.67-.49-.25-.18-.5-.37-.75-.56-.26-.19-.51-.38-.75-.57-.25-.19-.47-.35-.68-.5-.13-.13-.19-.26-.19-.4,0-.16.08-.3.23-.42.04-.03.13-.1.27-.22s.31-.24.51-.4c.2-.15.41-.32.63-.49.22-.18.43-.34.63-.49.2-.15.37-.29.51-.4.14-.12.23-.19.26-.21.1-.04.19-.06.26-.06.14,0,.25.04.33.13s.13.2.13.32c0,.14-.05.27-.16.4-.14.11-.31.25-.51.41-.21.16-.42.33-.65.5-.22.18-.44.34-.65.5-.21.16-.38.3-.51.41.16.12.34.26.56.42.21.16.42.32.64.48.22.16.43.32.64.48.21.16.4.29.56.42Z"/>
    <path class="cls-1" d="M6.88,13.88c0,.18-.07.34-.21.47-.14.13-.31.2-.5.2-.22,0-.39-.07-.53-.2-.14-.13-.21-.29-.21-.47s.07-.34.21-.48c.14-.14.32-.21.53-.21.19,0,.36.07.5.21.14.14.21.3.21.48Z"/>
    <path class="cls-1" d="M8.71,13.88c0,.18-.07.34-.21.47-.14.13-.31.2-.5.2-.22,0-.39-.07-.53-.2-.14-.13-.21-.29-.21-.47s.07-.34.21-.48c.14-.14.32-.21.53-.21.19,0,.36.07.5.21.14.14.21.3.21.48Z"/>
    <path class="cls-1" d="M10.54,13.88c0,.18-.07.34-.21.47-.14.13-.31.2-.5.2-.22,0-.39-.07-.53-.2-.14-.13-.21-.29-.21-.47s.07-.34.21-.48c.14-.14.32-.21.53-.21.19,0,.36.07.5.21.14.14.21.3.21.48Z"/>
    <path class="cls-1" d="M11.64,13.72c.16-.12.34-.26.56-.42.21-.16.42-.32.64-.48.22-.16.43-.32.64-.48.21-.16.4-.29.56-.42-.14-.11-.31-.25-.51-.41-.21-.16-.42-.33-.65-.5-.22-.18-.44-.34-.65-.5-.21-.16-.38-.3-.51-.41-.1-.13-.16-.26-.16-.4,0-.13.04-.24.13-.32.09-.09.2-.13.33-.13.07,0,.16.02.26.06.04.02.13.09.27.21.14.12.31.25.51.4s.41.32.63.49c.22.18.43.34.63.49s.37.28.51.4.23.18.27.22c.15.12.23.26.23.42,0,.14-.06.27-.19.4-.2.14-.42.31-.68.5-.25.19-.5.38-.76.57-.26.19-.51.38-.75.56-.25.18-.47.35-.67.49-.1.05-.2.07-.3.07-.14,0-.25-.04-.33-.13-.09-.08-.13-.19-.13-.32s.04-.25.13-.37Z"/>
  </g>
  <path class="cls-2" d="M4,8v-2h2c1.1,0,2-.9,2-2v-2h3c.55,0,1,.45,1,1v5h1V3c0-1.1-.9-2-2-2h-3.17c-.53,0-1.04.21-1.41.59l-2.83,2.83c-.38.38-.59.88-.59,1.41v2.17h1ZM7,2.41v1.59c0,.55-.45,1-1,1h-1.59l2.59-2.59Z"/>
</svg>